#!OML:ASF H:\Terrain\Patient Classification 1\Terrain2\Thursday\justin.ASF
:FULLY-SPECIFIED
:DEGREES
4258
root 15.4778 17.5107 -21.2574 2598.74 98.7239 80.8118
lowerback 5.29236 0.956764 7.51809
upperback 2.49649 1.83035 4.1421
thorax -0.29218 1.02007 -0.0308881
lowerneck -14.5753 -4.181 -9.13677
upperneck 35.036 -3.91865 4.90585
head 14.9255 -1.78983 3.10546
rclavicle -1.79403e-014 -3.02153e-014
rhumerus -29.8912 -7.3477 -78.9892
rradius 39.2225
rwrist -15.4559
rhand -21.4419 11.967
rfingers 7.12502
rthumb 4.94771 -17.9552
lclavicle -1.79403e-014 -3.02153e-014
lhumerus -35.4585 7.77832 84.5848
lradius 30.449
lwrist 0.372315
lhand -16.8378 22.1298
lfingers 7.12502
lthumb 9.39185 51.9006
rfemur -9.18981 -4.3746 32.4987
rtibia 28.5628
rfoot -12.5061 -6.78042
rtoes 5.43187
lfemur -19.5181 -2.66686 -7.76522
ltibia 48.1311
lfoot -14.1898 -13.8601
ltoes -1.5053
4259
root 15.5335 17.5031 -21.2676 2598.83 98.5689 80.8523
lowerback 5.31291 0.933568 7.47803
upperback 2.44977 1.79517 4.00739
thorax -0.350775 0.997485 -0.147582
lowerneck -14.6342 -4.12942 -8.95144
upperneck 35.113 -3.87738 4.86448
head 14.9636 -1.75243 3.06504
rclavicle 1.18277e-014 -5.1684e-015
rhumerus -29.9294 -7.45671 -79.0392
rradius 39.663
rwrist -15.4116
rhand -21.1967 11.9366
rfingers 7.12502
rthumb 5.18443 -17.98
lclavicle 1.18277e-014 -5.1684e-015
lhumerus -35.4924 7.737 84.5135
lradius 30.6032
lwrist 0.284528
lhand -16.9292 21.8002
lfingers 7.12502
lthumb 9.3037 51.5749
rfemur -9.24436 -4.23946 32.3322
rtibia 28.9008
rfoot -12.8822 -7.07103
rtoes 4.99691
lfemur -19.2225 -3.68765 -7.90761
ltibia 45.885
lfoot -14.6209 -14.4036
ltoes -1.46748
4260
root 15.5897 17.4959 -21.2753 2599.26 98.4481 81.4544
lowerback 5.45742 0.929278 7.41001
upperback 2.49733 1.7979 3.97743
thorax -0.383243 0.998483 -0.143893
lowerneck -14.6019 -4.08922 -8.98567
upperneck 35.0796 -3.8019 4.84042
head 14.9336 -1.72881 3.07263
rclavicle -3.42904e-015 -3.18055e-015
rhumerus -29.8558 -7.4198 -78.9491
rradius 39.8726
rwrist -15.4778
rhand -21.3587 12.0174
rfingers 7.12502
rthumb 5.028 -17.9029
lclavicle -3.42904e-015 -3.18055e-015
lhumerus -35.4676 7.51326 84.6984
lradius 30.7876
lwrist 0.384885
lhand -17.1908 21.9015
lfingers 7.12502
lthumb 9.05126 51.6873
rfemur -8.97653 -3.64527 32.2419
rtibia 29.2149
rfoot -13.3084 -7.60761
rtoes 5.79468
lfemur -18.6613 -4.78586 -8.00271
ltibia 43.6672
lfoot -15.0546 -14.8757
ltoes -3.09884
4261
root 15.645 17.4943 -21.288 2600.26 98.2664 82.4689
lowerback 5.43019 0.953822 7.30226
upperback 2.51582 1.81701 3.91811
thorax -0.349371 1.00742 -0.145716
lowerneck -14.5995 -4.10107 -9.16895
upperneck 35.0658 -3.82079 4.99309
head 14.9382 -1.74165 3.16577
rclavicle -1.0138e-014 -4.37326e-015
rhumerus -29.8447 -7.12532 -78.9815
rradius 40.1546
rwrist -15.7386
rhand -21.8107 12.1043
rfingers 7.12502
rthumb 4.59158 -17.8259
lclavicle -1.0138e-014 -4.37326e-015
lhumerus -35.4356 7.13895 84.8734
lradius 31.0384
lwrist 0.628259
lhand -16.8666 22.0943
lfingers 7.12502
lthumb 9.36402 51.8663
rfemur -8.92811 -4.33418 31.9576
rtibia 29.4763
rfoot -13.6236 -6.91182
rtoes 4.75326
lfemur -18.2849 -5.92164 -8.13725
ltibia 41.5311
lfoot -15.1611 -15.5754
ltoes -3.87665
4262
root 15.6951 17.4837 -21.3084 2600.57 98.5074 82.737
lowerback 5.41752 0.883162 7.62642
upperback 2.48882 1.74273 3.94269
thorax -0.364617 0.972857 -0.295367
lowerneck -14.6862 -4.10056 -9.18411
upperneck 35.1493 -3.81924 5.02529
head 14.9991 -1.73881 3.18508
rclavicle -5.86415e-015 -1.19271e-014
rhumerus -29.9625 -6.87732 -79.0721
rradius 40.606
rwrist -16.1389
rhand -21.8606 12.0909
rfingers 7.12502
rthumb 4.54335 -17.8404
lclavicle -5.86415e-015 -1.19271e-014
lhumerus -35.4336 6.59785 85.0507
lradius 31.3222
lwrist 1.03657
lhand -16.6226 22.1
lfingers 7.12502
lthumb 9.59945 51.8613
rfemur -8.95016 -5.78636 32.0151
rtibia 29.7131
rfoot -13.9662 -5.75673
rtoes 3.42719
lfemur -18.085 -7.09352 -7.80436
ltibia 39.5366
lfoot -14.7872 -16.6677
ltoes -1.42013
4263
root 15.7459 17.4756 -21.331 2600.29 98.7501 82.4033
lowerback 5.36733 0.791937 7.9185
upperback 2.47437 1.6345 3.96822
thorax -0.34987 0.922292 -0.423419
lowerneck -14.7859 -4.03724 -8.94115
upperneck 35.1714 -3.74924 4.89569
head 15.0139 -1.69468 3.0993
rclavicle -1.23743e-014 1.11319e-014
rhumerus -30.0561 -6.88638 -79.1141
rradius 41.0099
rwrist -16.1773
rhand -22.0805 12.0196
rfingers 7.12502
rthumb 4.33106 -17.9161
lclavicle -1.23743e-014 1.11319e-014
lhumerus -35.3505 6.2262 85.1971
lradius 31.549
lwrist 1.3307
lhand -16.911 22.2921
lfingers 7.12502
lthumb 9.32126 52.066
rfemur -8.86557 -6.3866 32.1192
rtibia 29.8393
rfoot -14.2572 -5.30436
rtoes 4.09188
lfemur -17.9276 -8.32182 -7.4792
ltibia 37.7165
lfoot -14.1247 -17.8739
ltoes 2.4832
